{"title":"Homefront 2013 1080p.BluRay.5.1.x264 . NVEE","uid":9997848,"size":2297144656,"categoryP":"video","categoryS":"hd___movies","magnet":"?xt=urn:btih:45ed2f2881f317453491a4244dd8226500e1b0e1&amp;dn=Homefront+2013+1080p.BluRay.5.1.x264+.+NVEE&amp;tr=udp%3A%2F%2Ftracker.openbittorrent.com%3A80&amp;tr=udp%3A%2F%2Fopen.demonii.com%3A1337&amp;tr=udp%3A%2F%2Ftracker.coppersurfer.tk%3A6969&amp;tr=udp%3A%2F%2Fexodus.desync.com%3A6969","seeders":2,"leechers":4,"uploader":".NVEE","files":-1,"time":1397942219,"description":"FULL_INFOs\n\n\nSource : Blu-ray ~ 1080p\n\nSpoken Language : English\n\nAudio : 6 ~ Channels Only\n\nAll .srt &amp; .idx subs can be turned On/Off\n_____________________________________\n\n\n  &lt;a href=&quot;\nhttp://www.imdb.com/title/tt2312718/&quot; rel=&quot;nofollow&quot; target=&quot;_NEW&quot;&gt;\nhttp://www.imdb.com/title/tt2312718/&lt;/a&gt;\n\n\n\n---------------------------------------------------------------------------------\n\n\nGeneral Metadata\n\nComplete name : Homefront 2013.1080p.BluRay.5.1.x264 . NVEE.mp4\nFormat : MPEG-4\nFormat profile : Base Media\nCodec ID : isom\nFile size : 2.14 GiB\nDuration : 1h 40mn\nOverall bit rate : 3 045 Kbps\nEncoded date : UTC 2014-03-02 06:06:37\nTagged date : UTC 2014-03-02 06:06:37\n\n\nVideo\n\nID : 1\nFormat : AVC\nFormat/Info : Advanced Video Codec\nFormat profile : &lt;a class=&quot;__cf_email__&quot; href=&quot;/cdn-cgi/l/email-protection&quot; data-cfemail=&quot;fbb3929c93bbb7cfd5cb&quot;&gt;[email&amp;#160;protected]&lt;/a&gt;&lt;script cf-hash='f9e31' type=&quot;text/javascript&quot;&gt;\n/* &lt;![CDATA[ */!function(){try{var t=&quot;currentScript&quot;in document?document.currentScript:function(){for(var t=document.getElementsByTagName(&quot;script&quot;),e=t.length;e--;)if(t[e].getAttribute(&quot;cf-hash&quot;))return t[e]}();if(t&amp;&amp;t.previousSibling){var e,r,n,i,c=t.previousSibling,a=c.getAttribute(&quot;data-cfemail&quot;);if(a){for(e=&quot;&quot;,r=parseInt(a.substr(0,2),16),n=2;a.length-n;n+=2)i=parseInt(a.substr(n,2),16)^r,e+=String.fromCharCode(i);e=document.createTextNode(e),c.parentNode.replaceChild(e,c)}}}catch(u){}}();/* ]]&gt; */&lt;/script&gt;\nFormat settings, CABAC : Yes\nFormat settings, ReFrames : 3 frames\nCodec ID : avc1\nCodec ID/Info : Advanced Video Coding\nDuration : 1h 40mn\nBit rate : 2 532 Kbps\nMaximum bit rate : 13.8 Mbps\nWidth : 1 920 pixels\nHeight : 798 pixels\nDisplay aspect ratio : 2.40:1\nOriginal display aspect ratio : 2.40:1\nFrame rate mode : Constant\nFrame rate : 23.976 fps\nColor space : YUV\nChroma subsampling : 4:2:0\nBit depth : 8 bits\nScan type : Progressive\nBits/(Pixel*Frame) : 0.069\nStream size : 1.78 GiB (83%)\nWriting library : x264 core 138 r2358 9e941d1\n\n\nAudio\n\nID : 2\nFormat : AC-3\nFormat/Info : Audio Coding 3\nMode extension : CM (complete main)\nFormat settings, Endianness : Big\nCodec ID : ac-3\nDuration : 1h 40mn\nBit rate mode : Constant\nBit rate : 512 Kbps\nChannel(s) : 6 channels\nChannel positions : Front: L C R, Side: L R, LFE\nSampling rate : 48.0 KHz\nBit depth : 16 bits\nCompression mode : Lossy\nStream size : 368 MiB (17%)\nLanguage : English\nEncoded date : UTC 2014-03-02 06:16:22\nTagged date : UTC 2014-03-02 06:18:04\n\n\nSynopsis\n\nHomefront is a 2013 American action thriller film directed by Gary Fleder and released nationwide in theaters on November 27.[3] Based on Chuck Logan's novel of the same name and adapted into a screenplay by Sylvester Stallone, the film stars Jason Statham, James Franco, Winona Ryder, and Kate Bosworth. Filming began on October 1, 2012 in New Orleans.\nDEA agent and ex soldier Phil Broker (Jason Statham) sees his quiet family life turned upside down when his path crosses with a band of drug traffickers, led by Gator (James Franco), a meth kingpin.\n\nEnj0y !","torrent":{"xt":"urn:btih:45ed2f2881f317453491a4244dd8226500e1b0e1","amp;dn":"Homefront+2013+1080p.BluRay.5.1.x264+.+NVEE","amp;tr":["udp%3A%2F%2Ftracker.openbittorrent.com%3A80","udp%3A%2F%2Fopen.demonii.com%3A1337","udp%3A%2F%2Ftracker.coppersurfer.tk%3A6969","udp%3A%2F%2Fexodus.desync.com%3A6969"],"infoHash":"45ed2f2881f317453491a4244dd8226500e1b0e1","infoHashBuffer":{"type":"Buffer","data":[69,237,47,40,129,243,23,69,52,145,164,36,77,216,34,101,0,225,176,225]},"announce":[],"urlList":[]}}